<svg width="14" height="23" viewBox="0 0 14 23" fill="none" xmlns="http://www.w3.org/2000/svg">
<path d="M4.71289 10.0176H6.74902C8.02832 9.99805 9.03418 9.66113 9.7666 9.00684C10.499 8.35254 10.8652 7.46875 10.8652 6.35547C10.8652 3.85547 9.62012 2.60547 7.12988 2.60547C5.95801 2.60547 5.02051 2.94238 4.31738 3.61621C3.62402 4.28027 3.27734 5.16406 3.27734 6.26758H0.567383C0.567383 4.57813 1.18262 3.17676 2.41309 2.06348C3.65332 0.94043 5.22559 0.378906 7.12988 0.378906C9.1416 0.378906 10.7188 0.911133 11.8613 1.97559C13.0039 3.04004 13.5752 4.51953 13.5752 6.41406C13.5752 7.3418 13.2725 8.24023 12.667 9.10938C12.0713 9.97852 11.2559 10.6279 10.2207 11.0576C11.3926 11.4287 12.2959 12.0439 12.9307 12.9033C13.5752 13.7627 13.8975 14.8125 13.8975 16.0527C13.8975 17.9668 13.2725 19.4854 12.0225 20.6084C10.7725 21.7314 9.14648 22.293 7.14453 22.293C5.14258 22.293 3.51172 21.751 2.25195 20.667C1.00195 19.583 0.376953 18.1523 0.376953 16.375H3.10156C3.10156 17.498 3.46777 18.3965 4.2002 19.0703C4.93262 19.7441 5.91406 20.0811 7.14453 20.0811C8.45312 20.0811 9.4541 19.7393 10.1475 19.0557C10.8408 18.3721 11.1875 17.3906 11.1875 16.1113C11.1875 14.8711 10.8066 13.9189 10.0449 13.2549C9.2832 12.5908 8.18457 12.249 6.74902 12.2295H4.71289V10.0176Z" fill="white"/>
<path d="M4.71289 10.0176V4.01758H-1.28711V10.0176H4.71289ZM6.74902 10.0176V16.0176H6.79482L6.84062 16.0169L6.74902 10.0176ZM4.31738 3.61621L8.46749 7.94941L8.46881 7.94814L4.31738 3.61621ZM3.27734 6.26758V12.2676H9.27734V6.26758H3.27734ZM0.567383 6.26758H-5.43262V12.2676H0.567383V6.26758ZM2.41309 2.06348L6.43857 6.51269L6.4404 6.51103L2.41309 2.06348ZM12.667 9.10938L7.74382 5.67975L7.73078 5.69847L7.71788 5.71729L12.667 9.10938ZM10.2207 11.0576L7.92044 5.51607L-7.25772 11.8164L8.40935 16.7777L10.2207 11.0576ZM12.9307 12.9033L8.10447 16.4681L8.1175 16.4858L8.13066 16.5033L12.9307 12.9033ZM2.25195 20.667L-1.67898 25.2L-1.67025 25.2075L-1.6615 25.2151L2.25195 20.667ZM0.376953 16.375V10.375H-5.62305V16.375H0.376953ZM3.10156 16.375H9.10156V10.375H3.10156V16.375ZM6.74902 12.2295L6.83065 6.23005L6.78984 6.22949H6.74902V12.2295ZM4.71289 12.2295H-1.28711V18.2295H4.71289V12.2295ZM4.71289 16.0176H6.74902V4.01758H4.71289V16.0176ZM6.84062 16.0169C9.1173 15.9821 11.664 15.3573 13.7639 13.4814L5.76932 4.53227C6.05797 4.27441 6.35028 4.13023 6.55724 4.06091C6.74557 3.99783 6.80291 4.01606 6.65743 4.01828L6.84062 16.0169ZM13.7639 13.4814C15.9479 11.5304 16.8652 8.92424 16.8652 6.35547H4.86523C4.86523 6.25136 4.88375 5.95187 5.0476 5.55646C5.21893 5.14296 5.4817 4.78921 5.76932 4.53227L13.7639 13.4814ZM16.8652 6.35547C16.8652 4.18651 16.3218 1.45653 14.1823 -0.691361C12.0385 -2.84356 9.30581 -3.39453 7.12988 -3.39453V8.60547C7.44419 8.60547 6.57914 8.6795 5.68046 7.7773C4.78608 6.87941 4.86523 6.02443 4.86523 6.35547H16.8652ZM7.12988 -3.39453C4.74507 -3.39453 2.20607 -2.67084 0.165951 -0.715718L8.46881 7.94814C8.1988 8.20691 7.88139 8.39523 7.57704 8.5046C7.29133 8.60728 7.11639 8.60547 7.12988 8.60547V-3.39453ZM0.167276 -0.716988C-1.88763 1.25109 -2.72266 3.79485 -2.72266 6.26758H9.27734C9.27734 6.34569 9.2641 6.60841 9.12299 6.96815C8.97505 7.34529 8.74159 7.68689 8.46749 7.94941L0.167276 -0.716988ZM3.27734 0.267578H0.567383V12.2676H3.27734V0.267578ZM6.56738 6.26758C6.56738 6.21042 6.57246 6.19988 6.56729 6.22584C6.56182 6.25333 6.54877 6.30197 6.52267 6.3614C6.4965 6.42103 6.46683 6.46956 6.44253 6.50267C6.41905 6.53466 6.41204 6.53669 6.43857 6.51269L-1.61239 -2.38574C-4.12586 -0.111649 -5.43262 2.91776 -5.43262 6.26758H6.56738ZM6.4404 6.51103C6.47756 6.47738 6.49827 6.46557 6.54048 6.4505C6.5948 6.4311 6.77006 6.37891 7.12988 6.37891V-5.62109C3.95743 -5.62109 0.882531 -4.64492 -1.61423 -2.38408L6.4404 6.51103ZM7.12988 6.37891C7.615 6.37891 7.84607 6.44386 7.90306 6.4631C7.92929 6.47195 7.91893 6.47104 7.88526 6.45127C7.85059 6.43092 7.80996 6.40155 7.77143 6.36566L15.9512 -2.41449C13.4061 -4.78556 10.2069 -5.62109 7.12988 -5.62109V6.37891ZM7.77143 6.36566C7.72928 6.32639 7.68042 6.27148 7.63507 6.20415C7.5899 6.13712 7.56298 6.07972 7.54952 6.04484C7.52265 5.97526 7.5752 6.06549 7.5752 6.41406H19.5752C19.5752 3.23749 18.5665 0.0219712 15.9512 -2.41449L7.77143 6.36566ZM7.5752 6.41406C7.5752 6.21215 7.61023 6.02219 7.66226 5.86779C7.71204 5.72005 7.75947 5.65727 7.74382 5.67975L17.5902 12.539C18.7938 10.8112 19.5752 8.73664 19.5752 6.41406H7.5752ZM7.71788 5.71729C7.75322 5.66572 7.80727 5.60543 7.87076 5.55486C7.93197 5.50612 7.96029 5.49953 7.92044 5.51607L12.521 16.5992C14.5568 15.7541 16.3215 14.3903 17.6161 12.5015L7.71788 5.71729ZM8.40935 16.7777C8.5073 16.8087 8.48603 16.8153 8.39957 16.7564C8.30637 16.693 8.19736 16.5939 8.10447 16.4681L17.7569 9.33852C16.2602 7.31222 14.2225 6.03121 12.0321 5.33756L8.40935 16.7777ZM8.13066 16.5033C8.02779 16.3661 7.95757 16.2186 7.91994 16.096C7.88495 15.982 7.89746 15.9534 7.89746 16.0527H19.8975C19.8975 13.7231 19.2707 11.3567 17.7307 9.30332L8.13066 16.5033ZM7.89746 16.0527C7.89746 16.2052 7.885 16.2972 7.87732 16.3393C7.86996 16.3798 7.86664 16.3767 7.88027 16.3436C7.89446 16.3091 7.91788 16.2643 7.95001 16.2191C7.98184 16.1742 8.00741 16.1498 8.01253 16.1452L16.0324 25.0716C18.7317 22.6465 19.8975 19.4075 19.8975 16.0527H7.89746ZM8.01253 16.1452C7.99806 16.1582 7.98067 16.175 7.90691 16.2005C7.81769 16.2313 7.58586 16.293 7.14453 16.293V28.293C10.3279 28.293 13.4773 27.3673 16.0324 25.0716L8.01253 16.1452ZM7.14453 16.293C6.68296 16.293 6.42617 16.2306 6.31217 16.1927C6.2129 16.1597 6.18238 16.1335 6.1654 16.1189L-1.6615 25.2151C0.899175 27.4184 4.0136 28.293 7.14453 28.293V16.293ZM6.18288 16.134C6.1788 16.1305 6.20421 16.1522 6.24171 16.2025C6.27993 16.2537 6.31593 16.3149 6.34394 16.379C6.37158 16.4423 6.38143 16.4855 6.38341 16.4956C6.38503 16.5039 6.37695 16.4674 6.37695 16.375H-5.62305C-5.62305 19.7456 -4.3497 22.8839 -1.67898 25.2L6.18288 16.134ZM0.376953 22.375H3.10156V10.375H0.376953V22.375ZM-2.89844 16.375C-2.89844 18.9379 -1.99455 21.5241 0.137856 23.4859L8.26253 14.6547C8.52927 14.9001 8.77323 15.2359 8.93238 15.6264C9.0848 16.0003 9.10156 16.2809 9.10156 16.375H-2.89844ZM0.137856 23.4859C2.22431 25.4054 4.78152 26.0811 7.14453 26.0811V14.0811C7.07224 14.0811 7.1933 14.0709 7.43371 14.1534C7.69301 14.2424 7.99255 14.4063 8.26253 14.6547L0.137856 23.4859ZM7.14453 26.0811C9.47224 26.0811 12.2011 25.4566 14.3599 23.3283L5.93502 14.783C6.28497 14.438 6.65936 14.2417 6.93785 14.1466C7.18946 14.0607 7.28952 14.0811 7.14453 14.0811V26.0811ZM14.3599 23.3283C16.5231 21.1955 17.1875 18.472 17.1875 16.1113H5.1875C5.1875 16.2205 5.17151 16.0875 5.27007 15.8085C5.37837 15.5019 5.58966 15.1235 5.93502 14.783L14.3599 23.3283ZM17.1875 16.1113C17.1875 13.5654 16.348 10.7899 13.9877 8.73225L6.10211 17.7775C5.75519 17.4751 5.48832 17.0887 5.331 16.6954C5.18534 16.3312 5.1875 16.0988 5.1875 16.1113H17.1875ZM13.9877 8.73225C11.7812 6.8086 9.09816 6.2609 6.83065 6.23005L6.6674 18.2289C6.94452 18.2327 6.9855 18.2664 6.86726 18.2296C6.73047 18.1871 6.43115 18.0644 6.10211 17.7775L13.9877 8.73225ZM6.74902 6.22949H4.71289V18.2295H6.74902V6.22949ZM10.7129 12.2295V10.0176H-1.28711V12.2295H10.7129Z" fill="black" fill-opacity="0.1"/>
</svg>
