<svg width="9" height="22" viewBox="0 0 9 22" fill="none" xmlns="http://www.w3.org/2000/svg">
<path d="M8.67871 0.554688V22H5.96875V3.93848L0.504883 5.93066V3.48438L8.25391 0.554688H8.67871Z" fill="white"/>
<path d="M8.67871 0.554688H14.6787V-5.44531H8.67871V0.554688ZM8.67871 22V28H14.6787V22H8.67871ZM5.96875 22H-0.03125V28H5.96875V22ZM5.96875 3.93848H11.9688V-4.63557L3.91344 -1.69852L5.96875 3.93848ZM0.504883 5.93066H-5.49512V14.5047L2.56019 11.5677L0.504883 5.93066ZM0.504883 3.48438L-1.61696 -2.12791L-5.49512 -0.661692V3.48438H0.504883ZM8.25391 0.554688V-5.44531H7.15756L6.13206 -5.0576L8.25391 0.554688ZM2.67871 0.554688V22H14.6787V0.554688H2.67871ZM8.67871 16H5.96875V28H8.67871V16ZM11.9688 22V3.93848H-0.03125V22H11.9688ZM3.91344 -1.69852L-1.55043 0.293671L2.56019 11.5677L8.02406 9.57547L3.91344 -1.69852ZM6.50488 5.93066V3.48438H-5.49512V5.93066H6.50488ZM2.62673 9.09666L10.3758 6.16697L6.13206 -5.0576L-1.61696 -2.12791L2.62673 9.09666ZM8.25391 6.55469H8.67871V-5.44531H8.25391V6.55469Z" fill="black" fill-opacity="0.1"/>
</svg>
