<svg width="17" height="22" viewBox="0 0 17 22" fill="none" xmlns="http://www.w3.org/2000/svg">
<path d="M13.2129 14.8369H16.1719V17.0488H13.2129V22H10.4883V17.0488H0.776367V15.4521L10.3271 0.671875H13.2129V14.8369ZM3.85254 14.8369H10.4883V4.37793L10.166 4.96387L3.85254 14.8369Z" fill="white"/>
<path d="M13.2129 14.8369H7.21289V20.8369H13.2129V14.8369ZM16.1719 14.8369H22.1719V8.83691H16.1719V14.8369ZM16.1719 17.0488V23.0488H22.1719V17.0488H16.1719ZM13.2129 17.0488V11.0488H7.21289V17.0488H13.2129ZM13.2129 22V28H19.2129V22H13.2129ZM10.4883 22H4.48828V28H10.4883V22ZM10.4883 17.0488H16.4883V11.0488H10.4883V17.0488ZM0.776367 17.0488H-5.22363V23.0488H0.776367V17.0488ZM0.776367 15.4521L-4.26306 12.1957L-5.22363 13.6823V15.4521H0.776367ZM10.3271 0.671875V-5.32812H7.06059L5.28772 -2.58453L10.3271 0.671875ZM13.2129 0.671875H19.2129V-5.32812H13.2129V0.671875ZM3.85254 14.8369L-1.20231 11.6045L-7.10612 20.8369H3.85254V14.8369ZM10.4883 14.8369V20.8369H16.4883V14.8369H10.4883ZM10.4883 4.37793H16.4883L5.23099 1.48642L10.4883 4.37793ZM10.166 4.96387L15.2209 8.19627L15.3277 8.02917L15.4233 7.85538L10.166 4.96387ZM13.2129 20.8369H16.1719V8.83691H13.2129V20.8369ZM10.1719 14.8369V17.0488H22.1719V14.8369H10.1719ZM16.1719 11.0488H13.2129V23.0488H16.1719V11.0488ZM7.21289 17.0488V22H19.2129V17.0488H7.21289ZM13.2129 16H10.4883V28H13.2129V16ZM16.4883 22V17.0488H4.48828V22H16.4883ZM10.4883 11.0488H0.776367V23.0488H10.4883V11.0488ZM6.77637 17.0488V15.4521H-5.22363V17.0488H6.77637ZM5.8158 18.7085L15.3666 3.92828L5.28772 -2.58453L-4.26306 12.1957L5.8158 18.7085ZM10.3271 6.67188H13.2129V-5.32812H10.3271V6.67188ZM7.21289 0.671875V14.8369H19.2129V0.671875H7.21289ZM3.85254 20.8369H10.4883V8.83691H3.85254V20.8369ZM16.4883 14.8369V4.37793H4.48828V14.8369H16.4883ZM5.23099 1.48642L4.90872 2.07235L15.4233 7.85538L15.7456 7.26944L5.23099 1.48642ZM5.11116 1.73146L-1.20231 11.6045L8.90739 18.0693L15.2209 8.19627L5.11116 1.73146Z" fill="black" fill-opacity="0.1"/>
</svg>
