<svg width="15" height="22" viewBox="0 0 15 22" fill="none" xmlns="http://www.w3.org/2000/svg">
<path d="M14.7471 22H0.772461V20.0518L8.15527 11.8486C9.24902 10.6084 10.001 9.60254 10.4111 8.83105C10.8311 8.0498 11.041 7.24414 11.041 6.41406C11.041 5.30078 10.7041 4.3877 10.0303 3.6748C9.35645 2.96191 8.45801 2.60547 7.33496 2.60547C5.9873 2.60547 4.9375 2.99121 4.18555 3.7627C3.44336 4.52441 3.07227 5.58887 3.07227 6.95605H0.362305C0.362305 4.99316 0.992188 3.40625 2.25195 2.19531C3.52148 0.984375 5.21582 0.378906 7.33496 0.378906C9.31738 0.378906 10.8848 0.901367 12.0371 1.94629C13.1895 2.98145 13.7656 4.36328 13.7656 6.0918C13.7656 8.19141 12.4277 10.6914 9.75195 13.5918L4.03906 19.7881H14.7471V22Z" fill="white"/>
<path d="M14.7471 22V28H20.7471V22H14.7471ZM0.772461 22H-5.22754V28H0.772461V22ZM0.772461 20.0518L-3.6873 16.038L-5.22754 17.7493V20.0518H0.772461ZM8.15527 11.8486L12.615 15.8624L12.6353 15.8399L12.6553 15.8172L8.15527 11.8486ZM10.4111 8.83105L5.12619 5.9904L5.11972 6.00243L5.11331 6.01449L10.4111 8.83105ZM4.18555 3.7627L-0.111134 -0.425208L-0.111831 -0.424493L4.18555 3.7627ZM3.07227 6.95605V12.9561H9.07227V6.95605H3.07227ZM0.362305 6.95605H-5.6377V12.9561H0.362305V6.95605ZM2.25195 2.19531L-1.88931 -2.14634L-1.89769 -2.13835L-1.90603 -2.13033L2.25195 2.19531ZM12.0371 1.94629L8.0067 6.39104L8.01708 6.40045L8.0275 6.40981L12.0371 1.94629ZM9.75195 13.5918L5.34199 9.52335L5.34073 9.52472L9.75195 13.5918ZM4.03906 19.7881L-0.372156 15.721L-9.65386 25.7881H4.03906V19.7881ZM14.7471 19.7881H20.7471V13.7881H14.7471V19.7881ZM14.7471 16H0.772461V28H14.7471V16ZM6.77246 22V20.0518H-5.22754V22H6.77246ZM5.23223 24.0655L12.615 15.8624L3.69551 7.83484L-3.6873 16.038L5.23223 24.0655ZM12.6553 15.8172C13.8361 14.4783 14.9628 13.051 15.709 11.6476L5.11331 6.01449C5.11338 6.01434 5.11157 6.01775 5.10759 6.0248C5.10361 6.03184 5.09771 6.04205 5.08967 6.05552C5.0734 6.08277 5.04985 6.12081 5.01761 6.17012C4.95222 6.27013 4.8598 6.4032 4.73396 6.57153C4.47939 6.91205 4.12648 7.3457 3.65521 7.88007L12.6553 15.8172ZM15.6961 11.6717C16.5523 10.0788 17.041 8.3032 17.041 6.41406H5.04102C5.04102 6.31699 5.05408 6.2175 5.07747 6.12777C5.08854 6.08529 5.10025 6.05142 5.10995 6.027C5.11471 6.01499 5.11876 6.00585 5.12166 5.99963C5.12456 5.99342 5.12622 5.99034 5.12619 5.9904L15.6961 11.6717ZM17.041 6.41406C17.041 3.99115 16.2614 1.53243 14.3907 -0.44669L5.66985 7.7963C5.45471 7.56869 5.2736 7.28108 5.1593 6.97131C5.0498 6.67455 5.04102 6.46558 5.04102 6.41406H17.041ZM14.3907 -0.44669C12.4154 -2.53655 9.84605 -3.39453 7.33496 -3.39453V8.60547C7.25977 8.60547 6.99773 8.59246 6.63842 8.44991C6.26171 8.30046 5.92489 8.06612 5.66985 7.7963L14.3907 -0.44669ZM7.33496 -3.39453C4.79981 -3.39453 2.03889 -2.63108 -0.111134 -0.425208L8.48223 7.9506C8.2088 8.23113 7.88926 8.42263 7.60624 8.52662C7.34814 8.62146 7.22662 8.60547 7.33496 8.60547V-3.39453ZM-0.111831 -0.424493C-2.23239 1.75187 -2.92773 4.49006 -2.92773 6.95605H9.07227C9.07227 6.80648 9.09339 6.88597 9.01616 7.10748C8.93056 7.35303 8.76057 7.66493 8.48292 7.94988L-0.111831 -0.424493ZM3.07227 0.956055H0.362305V12.9561H3.07227V0.956055ZM6.3623 6.95605C6.3623 6.78606 6.37594 6.67134 6.38812 6.60266C6.40005 6.53542 6.41141 6.5074 6.41147 6.50725C6.41181 6.50639 6.41063 6.50945 6.4076 6.51518C6.40457 6.52094 6.401 6.52688 6.39742 6.53219C6.38889 6.54481 6.38902 6.54106 6.40994 6.52096L-1.90603 -2.13033C-4.49317 0.356536 -5.6377 3.58198 -5.6377 6.95605H6.3623ZM6.39322 6.53696C6.40424 6.52645 6.41719 6.5105 6.4939 6.48309C6.58935 6.44898 6.84395 6.37891 7.33496 6.37891V-5.62109C4.01351 -5.62109 0.720081 -4.6353 -1.88931 -2.14634L6.39322 6.53696ZM7.33496 6.37891C7.8062 6.37891 8.03627 6.44162 8.09995 6.46285C8.14367 6.47743 8.0851 6.46213 8.0067 6.39104L16.0675 -2.49846C13.5338 -4.79598 10.3845 -5.62109 7.33496 -5.62109V6.37891ZM8.0275 6.40981C8.00458 6.38923 7.96143 6.3457 7.91293 6.27789C7.86402 6.20948 7.82419 6.13665 7.79561 6.06811C7.73519 5.92321 7.76562 5.8989 7.76562 6.0918H19.7656C19.7656 2.88012 18.6206 -0.205099 16.0467 -2.51724L8.0275 6.40981ZM7.76562 6.0918C7.76562 5.86868 7.83124 6.03938 7.4721 6.71047C7.11592 7.37602 6.45886 8.31273 5.34199 9.52335L14.1619 17.6602C17.0647 14.5138 19.7656 10.5623 19.7656 6.0918H7.76562ZM5.34073 9.52472L-0.372156 15.721L8.45028 23.8552L14.1632 17.6589L5.34073 9.52472ZM4.03906 25.7881H14.7471V13.7881H4.03906V25.7881ZM8.74707 19.7881V22H20.7471V19.7881H8.74707Z" fill="black" fill-opacity="0.1"/>
</svg>
