<svg width="18" height="18" viewBox="0 0 18 18" fill="none" xmlns="http://www.w3.org/2000/svg">
<path d="M17.1216 15.8203L14.1931 12.8917C15.228 11.5327 15.7826 9.86861 15.7699 8.16043C15.7763 7.13135 15.5799 6.11106 15.192 5.15787C14.8041 4.20467 14.2322 3.33727 13.5091 2.60508C12.7859 1.8729 11.9256 1.29026 10.9773 0.890557C10.029 0.490857 9.01128 0.281905 7.9822 0.275542H7.88497C6.85588 0.26914 5.8356 0.465516 4.8824 0.853423C3.92921 1.24133 3.06169 1.81315 2.32951 2.53631C1.59733 3.25947 1.01479 4.1198 0.615093 5.06811C0.215393 6.01642 0.00644132 7.03412 7.88291e-05 8.0632C-0.00428922 9.04895 0.172908 10.0271 0.522918 10.9487C0.958707 12.1173 1.66652 13.1654 2.58769 14.0063C3.50885 14.8471 4.61688 15.4567 5.82031 15.7844C6.49412 15.9614 7.18831 16.049 7.88497 16.0453C9.59322 16.0585 11.2574 15.5039 12.6162 14.4686L15.5449 17.3972C15.6483 17.5008 15.7712 17.583 15.9065 17.6391C16.0418 17.6952 16.1868 17.724 16.3332 17.724C16.4797 17.724 16.6247 17.6952 16.7599 17.6391C16.8952 17.583 17.0181 17.5008 17.1216 17.3972C17.3307 17.1881 17.4481 16.9044 17.4481 16.6087C17.4481 16.313 17.3307 16.0294 17.1216 15.8203ZM2.25008 8.16043C2.23545 6.68066 2.80921 5.25572 3.84518 4.19898C4.88116 3.14224 6.29445 2.54027 7.77422 2.52554H7.88497C8.61775 2.51866 9.3447 2.6562 10.0243 2.93028C10.704 3.20436 11.323 3.60964 11.846 4.12295C12.369 4.63626 12.7857 5.24747 13.0725 5.92186C13.3592 6.59624 13.5103 7.32053 13.5171 8.05331V8.15779C13.524 8.89058 13.3866 9.61753 13.1125 10.2972C12.8384 10.9768 12.4331 11.5958 11.9198 12.1188C11.4065 12.6418 10.7952 13.0586 10.1208 13.3453C9.44641 13.6321 8.72212 13.7831 7.98934 13.7899H7.88497C6.40519 13.8046 4.98014 13.2308 3.92341 12.1948C2.86667 11.1589 2.2648 9.74556 2.25008 8.26579C2.24918 8.23069 2.24918 8.19553 2.25008 8.16043Z" fill="#274156"/>
</svg>
