<svg width="27" height="26" viewBox="0 0 27 26" fill="none" xmlns="http://www.w3.org/2000/svg">
<path d="M12.401 1.8345C12.9733 0.675032 14.6266 0.675035 15.1989 1.8345L18.0217 7.55422C18.2489 8.01464 18.6882 8.33377 19.1963 8.4076L25.5084 9.3248C26.7879 9.51073 27.2988 11.0832 26.373 11.9857L21.8055 16.4379C21.4378 16.7963 21.27 17.3126 21.3568 17.8187L22.4351 24.1052C22.6536 25.3796 21.316 26.3514 20.1716 25.7498L14.5259 22.7816C14.0714 22.5427 13.5285 22.5427 13.074 22.7816L7.42831 25.7498C6.28386 26.3514 4.94626 25.3796 5.16484 24.1053L6.24307 17.8187C6.32986 17.3126 6.16209 16.7963 5.79442 16.4379L1.22695 11.9857C0.301062 11.0832 0.811979 9.51073 2.09152 9.3248L8.40361 8.4076C8.91172 8.33377 9.35096 8.01464 9.57819 7.55422L12.401 1.8345Z" fill="#F2C94C"/>
</svg>
