<svg width="14" height="20" viewBox="0 0 14 20" fill="none" xmlns="http://www.w3.org/2000/svg">
<path d="M11.7545 11.7213C11.3058 11.2295 10.8122 10.8271 10.2288 10.5141C11.5301 9.53057 12.3378 7.96579 12.3378 6.22217C12.3827 3.27144 9.91473 0.8125 6.90832 0.8125C3.90191 0.8125 1.3891 3.27144 1.3891 6.26688C1.3891 8.0552 2.28653 9.66469 3.63268 10.6483C3.13909 10.9612 2.64551 11.3189 2.24166 11.766C-0.495518 14.7614 0.0429431 18.1145 0.0429431 18.338L0.132687 19.1875H13.8186L13.9083 18.338C13.9981 18.1145 14.4916 14.7614 11.7545 11.7213ZM6.90832 2.73495C8.88268 2.73495 10.4532 4.29973 10.4532 6.26688C10.4532 8.23403 8.83781 9.75411 6.90832 9.75411C4.93396 9.75411 3.36345 8.18933 3.36345 6.22217C3.36345 4.25502 4.93396 2.73495 6.90832 2.73495ZM12.0686 17.2651H1.97243C1.92756 15.7897 2.10704 14.7614 3.72243 13.0178C4.53012 12.1236 5.60704 11.6766 7.04294 11.6766C8.43396 11.6766 9.55576 12.1236 10.3634 13.0178C11.934 14.7614 12.1134 15.7897 12.0686 17.2651Z" fill="white"/>
</svg>
